# Blender v2.90.1 OBJ File: 'script_generator.blend'
# www.blender.org
mtllib 24f_path.mtl
o foil.ending.2.0_ending.095
v 15.500000 0.250000 -0.500000
v 15.500000 0.250000 0.500000
v 17.000000 -0.500000 -1.000000
v 17.000000 0.500000 -1.000000
v 15.000000 -0.500000 -1.000000
v 15.000000 0.500000 -1.000000
v 17.000000 -0.500000 1.000000
v 17.000000 0.500000 1.000000
v 15.000000 -0.500000 1.000000
v 15.000000 0.500000 1.000000
v 17.000000 0.250000 0.500000
v 17.000000 0.250000 -0.500000
v 15.000000 0.500000 0.500000
v 15.000000 0.500000 -0.500000
v 15.500000 0.500000 1.000000
v 15.500000 0.500000 -1.000000
vt 0.125000 0.500000
vt 0.375000 0.500000
vt 0.625000 0.500000
vt 0.000000 0.000000
vt 0.000000 0.000000
vt 0.625000 0.250000
vt 0.375000 0.000000
vt 0.375000 0.250000
vt 0.625000 0.187500
vt 0.625000 0.000000
vt 0.375000 0.750000
vt 0.625000 0.750000
vt 0.625000 0.562500
vt 0.125000 0.750000
vt 0.000000 0.000000
vt 0.000000 0.000000
vt 0.000000 0.000000
vt 0.000000 0.000000
vt 0.000000 0.000000
vt 0.000000 0.000000
vt 0.000000 0.000000
vt 0.000000 0.000000
vt 0.000000 0.000000
vt 0.000000 0.000000
vt 0.125000 0.500000
vt 0.312500 0.500000
vt 0.312500 0.750000
vt 0.125000 0.750000
vt 0.000000 0.000000
vt 0.000000 0.000000
vn -1.0000 -0.0000 0.0000
vn 0.0000 -0.0000 -1.0000
vn 0.0000 1.0000 0.0000
vn -0.0000 -0.0000 1.0000
vn 0.0000 -1.0000 0.0000
vn 1.0000 0.0000 0.0000
vn 0.4082 0.8165 -0.4082
vn 0.4082 0.8165 0.4082
vn 0.4472 0.8944 0.0000
vn 0.0000 0.8944 -0.4472
vn 0.0000 0.8944 0.4472
usemtl Material
s off
f 5/1/1 9/2/1 10/3/1 13/4/1 14/5/1 6/6/1
f 3/7/2 5/8/2 6/6/2 16/9/2 4/10/2
f 16/9/3 6/6/3 14/5/3
f 9/2/4 7/11/4 8/12/4 15/13/4 10/3/4
f 15/13/3 13/4/3 10/3/3
f 5/1/5 3/14/5 7/11/5 9/2/5
f 10/15/4 9/16/4 7/17/4 8/18/4
f 6/19/2 4/20/2 3/21/2 5/22/2
f 3/21/6 4/20/6 12/23/6 11/24/6 8/18/6 7/17/6
usemtl PathFace
f 2/25/3 11/26/3 12/27/3 1/28/3
f 13/4/7 15/13/7 2/29/7
f 16/9/8 14/5/8 1/30/8
f 1/30/9 14/5/9 13/4/9 2/29/9
f 11/26/10 2/29/10 15/13/10 8/12/10
f 1/28/11 12/27/11 4/10/11 16/9/11
o foil.through.3.0_through.050
v 19.000004 -0.500000 0.999996
v 19.000004 0.500000 0.999996
v 17.000004 -0.500000 1.000004
v 17.000004 0.500000 1.000004
v 18.999996 -0.500000 -1.000004
v 18.999996 0.500000 -1.000004
v 16.999996 -0.500000 -0.999996
v 16.999996 0.500000 -0.999996
v 16.999998 0.250000 -0.499996
v 18.999998 0.250000 -0.500004
v 17.000002 0.250000 0.500004
v 19.000002 0.250000 0.499996
vt 0.375000 0.000000
vt 0.625000 0.000000
vt 0.625000 0.250000
vt 0.375000 0.250000
vt 0.375000 0.500000
vt 0.625000 0.500000
vt 0.625000 0.750000
vt 0.375000 0.750000
vt 0.152781 0.750000
vt 0.152781 0.500000
vt 0.125000 0.500000
vt 0.125000 0.750000
vt 0.282406 0.500000
vt 0.282406 0.750000
vn 0.0000 0.0000 1.0000
vn -0.0000 0.0000 -1.0000
vn -1.0000 0.0000 0.0000
vn 0.0000 -1.0000 0.0000
vn 1.0000 0.0000 -0.0000
vn -0.0000 0.8944 -0.4472
vn 0.0000 0.8944 0.4472
vn 0.0000 1.0000 0.0000
usemtl Material
s off
f 17/31/12 18/32/12 20/33/12 19/34/12
f 23/35/13 24/36/13 22/37/13 21/38/13
f 20/33/14 27/39/14 25/40/14 24/36/14 23/35/14 19/41/14
f 19/41/15 23/35/15 21/38/15 17/42/15
f 18/32/16 17/42/16 21/38/16 22/37/16 26/43/16 28/44/16
usemtl PathFace
f 18/32/17 28/44/17 27/39/17 20/33/17
f 24/36/18 25/40/18 26/43/18 22/37/18
f 27/39/19 28/44/19 26/43/19 25/40/19
o foil.corner.3.2_corner.236
v 17.500000 0.250000 -3.500000
v 19.000000 -0.500000 -5.000000
v 19.000000 0.500000 -5.000000
v 17.000000 -0.500000 -5.000000
v 17.000000 0.500000 -5.000000
v 19.000000 -0.500000 -3.000000
v 19.000000 0.500000 -3.000000
v 17.000000 -0.500000 -3.000000
v 17.000000 0.500000 -3.000000
v 19.000000 0.250000 -3.500000
v 19.000000 0.250000 -4.500000
v 17.500000 0.250000 -5.000000
v 18.500000 0.250000 -5.000000
v 18.500000 0.000000 -4.500000
v 18.500000 0.000000 -4.500000
v 18.500000 0.250000 -4.500000
vt 0.375000 0.250000
vt 0.375000 0.500000
vt 0.625000 0.500000
vt 0.625000 0.250000
vt 0.375000 0.750000
vt 0.625000 0.750000
vt 0.125000 0.500000
vt 0.125000 0.750000
vt 0.000000 0.000000
vt 0.500000 0.937500
vt 0.500000 0.812500
vt 0.500000 0.187500
vt 0.500000 0.062500
vt 0.375000 0.250000
vt 0.000000 0.000000
vn -1.0000 0.0000 0.0000
vn 0.0000 0.0000 1.0000
vn 0.0000 -1.0000 0.0000
vn 1.0000 0.0000 0.0000
vn 0.0000 0.0000 -1.0000
vn 0.0000 1.0000 0.0000
vn 0.0000 0.8944 -0.4472
vn 0.4472 0.8944 0.0000
vn -0.4472 0.8944 0.0000
vn 0.0000 0.8944 0.4472
usemtl Material
s off
f 32/45/20 36/46/20 37/47/20 33/48/20
f 36/46/21 34/49/21 35/50/21 37/47/21
f 32/51/22 30/52/22 34/49/22 36/46/22
f 31/53/23 39/54/23 38/55/23 35/50/23 34/49/23 30/52/23
f 32/45/24 33/48/24 40/56/24 41/57/24 31/53/24 30/52/24
usemtl PathFace
f 29/58/25 38/55/25 39/54/25 44/59/25 41/57/25 40/56/25
f 38/55/26 29/58/26 37/47/26 35/50/26
f 33/48/27 37/47/27 29/58/27 40/56/27
f 31/53/28 41/57/28 44/59/28
f 31/53/29 44/59/29 39/54/29
l 42 39
l 42 39
l 42 41
l 43 42
l 42 44
o foil.corner.3.3_corner.237
v 17.500000 0.250000 -6.500000
v 19.000000 -0.500000 -5.000000
v 19.000000 0.500000 -5.000000
v 19.000000 -0.500000 -7.000000
v 19.000000 0.500000 -7.000000
v 17.000000 -0.500000 -5.000000
v 17.000000 0.500000 -5.000000
v 17.000000 -0.500000 -7.000000
v 17.000000 0.500000 -7.000000
v 17.500000 0.250000 -5.000000
v 18.500000 0.250000 -5.000000
v 19.000000 0.250000 -6.500000
v 19.000000 0.250000 -5.500000
v 18.500000 0.000000 -5.500000
v 18.500000 0.000000 -5.500000
v 18.500000 0.250000 -5.500000
vt 0.375000 0.250000
vt 0.375000 0.500000
vt 0.625000 0.500000
vt 0.625000 0.250000
vt 0.375000 0.750000
vt 0.625000 0.750000
vt 0.125000 0.500000
vt 0.125000 0.750000
vt 0.000000 0.000000
vt 0.500000 0.937500
vt 0.500000 0.812500
vt 0.500000 0.187500
vt 0.500000 0.062500
vt 0.375000 0.250000
vt 0.000000 0.000000
vn 0.0000 0.0000 -1.0000
vn -1.0000 0.0000 0.0000
vn 0.0000 -1.0000 0.0000
vn 0.0000 0.0000 1.0000
vn 1.0000 0.0000 0.0000
vn 0.0000 1.0000 0.0000
vn 0.4472 0.8944 0.0000
vn 0.0000 0.8944 0.4472
vn 0.0000 0.8944 -0.4472
vn -0.4472 0.8944 0.0000
usemtl Material
s off
f 48/60/30 52/61/30 53/62/30 49/63/30
f 52/61/31 50/64/31 51/65/31 53/62/31
f 48/66/32 46/67/32 50/64/32 52/61/32
f 47/68/33 55/69/33 54/70/33 51/65/33 50/64/33 46/67/33
f 48/60/34 49/63/34 56/71/34 57/72/34 47/68/34 46/67/34
usemtl PathFace
f 45/73/35 54/70/35 55/69/35 60/74/35 57/72/35 56/71/35
f 54/70/36 45/73/36 53/62/36 51/65/36
f 49/63/37 53/62/37 45/73/37 56/71/37
f 47/68/38 57/72/38 60/74/38
f 47/68/39 60/74/39 55/69/39
l 58 55
l 58 55
l 58 57
l 59 58
l 58 60
o foil.corner.4.0_corner.238
v 20.500000 0.250000 0.500000
v 19.000000 -0.500000 -1.000000
v 19.000000 0.500000 -1.000000
v 19.000000 -0.500000 1.000000
v 19.000000 0.500000 1.000000
v 21.000000 -0.500000 -1.000000
v 21.000000 0.500000 -1.000000
v 21.000000 -0.500000 1.000000
v 21.000000 0.500000 1.000000
v 20.500000 0.250000 -1.000000
v 19.500000 0.250000 -1.000000
v 19.000000 0.250000 0.500000
v 19.000000 0.250000 -0.500000
v 19.500000 0.000000 -0.500000
v 19.500000 0.000000 -0.500000
v 19.500000 0.250000 -0.500000
vt 0.375000 0.250000
vt 0.375000 0.500000
vt 0.625000 0.500000
vt 0.625000 0.250000
vt 0.375000 0.750000
vt 0.625000 0.750000
vt 0.125000 0.500000
vt 0.125000 0.750000
vt 0.000000 0.000000
vt 0.500000 0.937500
vt 0.500000 0.812500
vt 0.500000 0.187500
vt 0.500000 0.062500
vt 0.375000 0.250000
vt 0.000000 0.000000
vn 0.0000 0.0000 1.0000
vn 1.0000 0.0000 0.0000
vn 0.0000 -1.0000 0.0000
vn -0.0000 0.0000 -1.0000
vn -1.0000 0.0000 0.0000
vn 0.0000 1.0000 0.0000
vn -0.4472 0.8944 0.0000
vn -0.0000 0.8944 -0.4472
vn 0.0000 0.8944 0.4472
vn 0.4472 0.8944 0.0000
usemtl Material
s off
f 64/75/40 68/76/40 69/77/40 65/78/40
f 68/76/41 66/79/41 67/80/41 69/77/41
f 64/81/42 62/82/42 66/79/42 68/76/42
f 63/83/43 71/84/43 70/85/43 67/80/43 66/79/43 62/82/43
f 64/75/44 65/78/44 72/86/44 73/87/44 63/83/44 62/82/44
usemtl PathFace
f 61/88/45 70/85/45 71/84/45 76/89/45 73/87/45 72/86/45
f 70/85/46 61/88/46 69/77/46 67/80/46
f 65/78/47 69/77/47 61/88/47 72/86/47
f 63/83/48 73/87/48 76/89/48
f 63/83/49 76/89/49 71/84/49
l 74 71
l 74 71
l 74 73
l 75 74
l 74 76
o foil.through.4.1_through.051
v 19.000000 -0.500000 -1.000000
v 19.000000 0.500000 -1.000000
v 19.000000 -0.500000 -3.000000
v 19.000000 0.500000 -3.000000
v 21.000000 -0.500000 -1.000000
v 21.000000 0.500000 -1.000000
v 21.000000 -0.500000 -3.000000
v 21.000000 0.500000 -3.000000
v 20.500000 0.250000 -3.000000
v 20.500000 0.250000 -1.000000
v 19.500000 0.250000 -3.000000
v 19.500000 0.250000 -1.000000
vt 0.375000 0.000000
vt 0.625000 0.000000
vt 0.625000 0.250000
vt 0.375000 0.250000
vt 0.375000 0.500000
vt 0.625000 0.500000
vt 0.625000 0.750000
vt 0.375000 0.750000
vt 0.152781 0.750000
vt 0.152781 0.500000
vt 0.125000 0.500000
vt 0.125000 0.750000
vt 0.282406 0.500000
vt 0.282406 0.750000
vn -1.0000 0.0000 0.0000
vn 1.0000 0.0000 0.0000
vn 0.0000 0.0000 -1.0000
vn 0.0000 -1.0000 0.0000
vn 0.0000 0.0000 1.0000
vn 0.4472 0.8944 0.0000
vn -0.4472 0.8944 0.0000
vn 0.0000 1.0000 0.0000
usemtl Material
s off
f 77/90/50 78/91/50 80/92/50 79/93/50
f 83/94/51 84/95/51 82/96/51 81/97/51
f 80/92/52 87/98/52 85/99/52 84/95/52 83/94/52 79/100/52
f 79/100/53 83/94/53 81/97/53 77/101/53
f 78/91/54 77/101/54 81/97/54 82/96/54 86/102/54 88/103/54
usemtl PathFace
f 78/91/55 88/103/55 87/98/55 80/92/55
f 84/95/56 85/99/56 86/102/56 82/96/56
f 87/98/57 88/103/57 86/102/57 85/99/57
o foil.corner.4.2_corner.239
v 20.500000 0.250000 -4.500000
v 19.000000 -0.500000 -3.000000
v 19.000000 0.500000 -3.000000
v 21.000000 -0.500000 -3.000000
v 21.000000 0.500000 -3.000000
v 19.000000 -0.500000 -5.000000
v 19.000000 0.500000 -5.000000
v 21.000000 -0.500000 -5.000000
v 21.000000 0.500000 -5.000000
v 19.000000 0.250000 -4.500000
v 19.000000 0.250000 -3.500000
v 20.500000 0.250000 -3.000000
v 19.500000 0.250000 -3.000000
v 19.500000 0.000000 -3.500000
v 19.500000 0.000000 -3.500000
v 19.500000 0.250000 -3.500000
vt 0.375000 0.250000
vt 0.375000 0.500000
vt 0.625000 0.500000
vt 0.625000 0.250000
vt 0.375000 0.750000
vt 0.625000 0.750000
vt 0.125000 0.500000
vt 0.125000 0.750000
vt 0.000000 0.000000
vt 0.500000 0.937500
vt 0.500000 0.812500
vt 0.500000 0.187500
vt 0.500000 0.062500
vt 0.375000 0.250000
vt 0.000000 0.000000
vn 1.0000 0.0000 0.0000
vn 0.0000 0.0000 -1.0000
vn 0.0000 -1.0000 0.0000
vn -1.0000 0.0000 0.0000
vn 0.0000 0.0000 1.0000
vn 0.0000 1.0000 0.0000
vn 0.0000 0.8944 0.4472
vn -0.4472 0.8944 0.0000
vn 0.4472 0.8944 0.0000
vn 0.0000 0.8944 -0.4472
usemtl Material
s off
f 92/104/58 96/105/58 97/106/58 93/107/58
f 96/105/59 94/108/59 95/109/59 97/106/59
f 92/110/60 90/111/60 94/108/60 96/105/60
f 91/112/61 99/113/61 98/114/61 95/109/61 94/108/61 90/111/61
f 92/104/62 93/107/62 100/115/62 101/116/62 91/112/62 90/111/62
usemtl PathFace
f 89/117/63 98/114/63 99/113/63 104/118/63 101/116/63 100/115/63
f 98/114/64 89/117/64 97/106/64 95/109/64
f 93/107/65 97/106/65 89/117/65 100/115/65
f 91/112/66 101/116/66 104/118/66
f 91/112/67 104/118/67 99/113/67
l 102 99
l 102 99
l 102 101
l 103 102
l 102 104
o foil.ending.4.3_ending.096
v 20.500000 0.250000 -5.500000
v 20.500000 0.250000 -6.500000
v 19.000000 -0.500000 -5.000000
v 19.000000 0.500000 -5.000000
v 21.000000 -0.500000 -5.000000
v 21.000000 0.500000 -5.000000
v 19.000000 -0.500000 -7.000000
v 19.000000 0.500000 -7.000000
v 21.000000 -0.500000 -7.000000
v 21.000000 0.500000 -7.000000
v 19.000000 0.250000 -6.500000
v 19.000000 0.250000 -5.500000
v 21.000000 0.500000 -6.500000
v 21.000000 0.500000 -5.500000
v 20.500000 0.500000 -7.000000
v 20.500000 0.500000 -5.000000
vt 0.125000 0.500000
vt 0.375000 0.500000
vt 0.625000 0.500000
vt 0.000000 0.000000
vt 0.000000 0.000000
vt 0.625000 0.250000
vt 0.375000 0.000000
vt 0.375000 0.250000
vt 0.625000 0.187500
vt 0.625000 0.000000
vt 0.375000 0.750000
vt 0.625000 0.750000
vt 0.625000 0.562500
vt 0.125000 0.750000
vt 0.000000 0.000000
vt 0.000000 0.000000
vt 0.000000 0.000000
vt 0.000000 0.000000
vt 0.000000 0.000000
vt 0.000000 0.000000
vt 0.000000 0.000000
vt 0.000000 0.000000
vt 0.000000 0.000000
vt 0.000000 0.000000
vt 0.125000 0.500000
vt 0.312500 0.500000
vt 0.312500 0.750000
vt 0.125000 0.750000
vt 0.000000 0.000000
vt 0.000000 0.000000
vn 1.0000 0.0000 0.0000
vn 0.0000 0.0000 1.0000
vn 0.0000 1.0000 0.0000
vn 0.0000 0.0000 -1.0000
vn 0.0000 -1.0000 0.0000
vn -1.0000 0.0000 0.0000
vn -0.4082 0.8165 0.4082
vn -0.4082 0.8165 -0.4082
vn -0.4472 0.8944 0.0000
vn 0.0000 0.8944 0.4472
vn 0.0000 0.8944 -0.4472
usemtl Material
s off
f 109/119/68 113/120/68 114/121/68 117/122/68 118/123/68 110/124/68
f 107/125/69 109/126/69 110/124/69 120/127/69 108/128/69
f 120/127/70 110/124/70 118/123/70
f 113/120/71 111/129/71 112/130/71 119/131/71 114/121/71
f 119/131/70 117/122/70 114/121/70
f 109/119/72 107/132/72 111/129/72 113/120/72
f 114/133/71 113/134/71 111/135/71 112/136/71
f 110/137/69 108/138/69 107/139/69 109/140/69
f 107/139/73 108/138/73 116/141/73 115/142/73 112/136/73 111/135/73
usemtl PathFace
f 106/143/70 115/144/70 116/145/70 105/146/70
f 117/122/74 119/131/74 106/147/74
f 120/127/75 118/123/75 105/148/75
f 105/148/76 118/123/76 117/122/76 106/147/76
f 115/144/77 106/147/77 119/131/77 112/130/77
f 105/146/78 116/145/78 108/128/78 120/127/78
o foil.hole.4.4_Cube.049
v 19.500000 0.250000 -8.500000
v 19.000000 -0.500000 -9.000000
v 19.000000 0.500000 -9.000000
v 19.500000 0.500000 -9.000000
v 19.000000 0.500000 -8.500000
v 20.500000 0.250000 -8.500000
v 21.000000 -0.500000 -9.000000
v 21.000000 0.500000 -9.000000
v 20.500000 0.500000 -9.000000
v 21.000000 0.500000 -8.500000
v 19.500000 0.250000 -7.500000
v 19.000000 -0.500000 -7.000000
v 19.000000 0.500000 -7.000000
v 19.500000 0.500000 -7.000000
v 19.000000 0.500000 -7.500000
v 20.500000 0.250000 -7.500000
v 21.000000 -0.500000 -7.000000
v 21.000000 0.500000 -7.000000
v 20.500000 0.500000 -7.000000
v 21.000000 0.500000 -7.500000
vt 0.625000 0.187500
vt 0.000000 0.000000
vt 0.625000 0.250000
vt 0.375000 0.812500
vt 0.375000 0.750000
vt 1.000000 1.000000
vt 0.375000 0.812500
vt 0.375000 0.750000
vt 1.000000 1.000000
vt 0.625000 0.187500
vt 0.000000 0.000000
vt 0.625000 0.250000
vt 0.875000 0.500000
vt 0.000000 0.000000
vt 0.125000 0.500000
vt 0.000000 0.000000
vt 0.000000 0.000000
vt 1.000000 1.000000
vt 1.000000 1.000000
vt 0.000000 0.000000
vt 0.000000 0.000000
vn 0.0000 1.0000 0.0000
vn 0.0000 0.0000 -1.0000
vn 1.0000 0.0000 0.0000
vn -1.0000 0.0000 0.0000
vn 0.0000 0.0000 1.0000
vn 0.0000 -1.0000 0.0000
vn 0.4082 0.8165 0.4082
vn -0.4082 0.8165 0.4082
vn 0.4472 0.8944 0.0000
vn 0.4082 0.8165 -0.4082
vn -0.4472 0.8944 0.0000
vn -0.4082 0.8165 -0.4082
vn 0.0000 0.8944 0.4472
vn 0.0000 0.8944 -0.4472
usemtl Material
s off
f 125/149/79 124/150/79 123/151/79
f 130/152/79 128/153/79 129/154/79
f 135/155/79 133/156/79 134/157/79
f 140/158/79 139/159/79 138/160/79
f 123/151/80 124/150/80 129/154/80 128/153/80 127/161/80 122/162/80
f 128/153/81 130/152/81 140/158/81 138/160/81 137/163/81 127/161/81
f 122/162/82 132/164/82 133/156/82 135/155/82 125/149/82 123/151/82
f 133/156/83 132/164/83 137/163/83 138/160/83 139/159/83 134/157/83
f 132/164/84 122/162/84 127/161/84 137/163/84
usemtl PathFace
f 125/149/85 121/165/85 124/150/85
f 130/152/86 129/154/86 126/166/86
f 125/149/87 135/155/87 131/167/87 121/165/87
f 135/155/88 134/157/88 131/167/88
f 126/166/79 121/165/79 131/168/79 136/169/79
f 130/152/89 126/166/89 136/169/89 140/158/89
f 140/158/90 136/169/90 139/159/90
f 124/150/91 121/165/91 126/166/91 129/154/91
f 134/157/92 139/159/92 136/169/92 131/168/92
