# Blender v2.90.1 OBJ File: 'script_generator.blend'
# www.blender.org
mtllib 45f_path.mtl
o foil.corner.1.1_corner.450
v 13.500000 0.250000 -1.500000
v 15.000000 -0.500000 -3.000000
v 15.000000 0.500000 -3.000000
v 13.000000 -0.500000 -3.000000
v 13.000000 0.500000 -3.000000
v 15.000000 -0.500000 -1.000000
v 15.000000 0.500000 -1.000000
v 13.000000 -0.500000 -1.000000
v 13.000000 0.500000 -1.000000
v 15.000000 0.250000 -1.500000
v 15.000000 0.250000 -2.500000
v 13.500000 0.250000 -3.000000
v 14.500000 0.250000 -3.000000
v 14.500000 0.000000 -2.500000
v 14.500000 0.000000 -2.500000
v 14.500000 0.250000 -2.500000
vt 0.375000 0.250000
vt 0.375000 0.500000
vt 0.625000 0.500000
vt 0.625000 0.250000
vt 0.375000 0.750000
vt 0.625000 0.750000
vt 0.125000 0.500000
vt 0.125000 0.750000
vt 0.000000 0.000000
vt 0.500000 0.937500
vt 0.500000 0.812500
vt 0.500000 0.187500
vt 0.500000 0.062500
vt 0.375000 0.250000
vt 0.000000 0.000000
vn -1.0000 0.0000 0.0000
vn 0.0000 0.0000 1.0000
vn 0.0000 -1.0000 0.0000
vn 1.0000 0.0000 0.0000
vn 0.0000 0.0000 -1.0000
vn 0.0000 1.0000 0.0000
vn 0.0000 0.8944 -0.4472
vn 0.4472 0.8944 0.0000
vn -0.4472 0.8944 0.0000
vn 0.0000 0.8944 0.4472
usemtl Material
s off
f 4/1/1 8/2/1 9/3/1 5/4/1
f 8/2/2 6/5/2 7/6/2 9/3/2
f 4/7/3 2/8/3 6/5/3 8/2/3
f 3/9/4 11/10/4 10/11/4 7/6/4 6/5/4 2/8/4
f 4/1/5 5/4/5 12/12/5 13/13/5 3/9/5 2/8/5
usemtl PathFace
f 1/14/6 10/11/6 11/10/6 16/15/6 13/13/6 12/12/6
f 10/11/7 1/14/7 9/3/7 7/6/7
f 5/4/8 9/3/8 1/14/8 12/12/8
f 3/9/9 13/13/9 16/15/9
f 3/9/10 16/15/10 11/10/10
l 14 11
l 14 11
l 14 13
l 15 14
l 14 16
o foil.through.1.2_through.088
v 13.000000 -0.500000 -3.000000
v 13.000000 0.500000 -3.000000
v 13.000000 -0.500000 -5.000000
v 13.000000 0.500000 -5.000000
v 15.000000 -0.500000 -3.000000
v 15.000000 0.500000 -3.000000
v 15.000000 -0.500000 -5.000000
v 15.000000 0.500000 -5.000000
v 14.500000 0.250000 -5.000000
v 14.500000 0.250000 -3.000000
v 13.500000 0.250000 -5.000000
v 13.500000 0.250000 -3.000000
vt 0.375000 0.000000
vt 0.625000 0.000000
vt 0.625000 0.250000
vt 0.375000 0.250000
vt 0.375000 0.500000
vt 0.625000 0.500000
vt 0.625000 0.750000
vt 0.375000 0.750000
vt 0.152781 0.750000
vt 0.152781 0.500000
vt 0.125000 0.500000
vt 0.125000 0.750000
vt 0.282406 0.500000
vt 0.282406 0.750000
vn -1.0000 0.0000 0.0000
vn 1.0000 0.0000 0.0000
vn 0.0000 0.0000 -1.0000
vn 0.0000 -1.0000 0.0000
vn 0.0000 0.0000 1.0000
vn 0.4472 0.8944 0.0000
vn -0.4472 0.8944 0.0000
vn 0.0000 1.0000 0.0000
usemtl Material
s off
f 17/16/11 18/17/11 20/18/11 19/19/11
f 23/20/12 24/21/12 22/22/12 21/23/12
f 20/18/13 27/24/13 25/25/13 24/21/13 23/20/13 19/26/13
f 19/26/14 23/20/14 21/23/14 17/27/14
f 18/17/15 17/27/15 21/23/15 22/22/15 26/28/15 28/29/15
usemtl PathFace
f 18/17/16 28/29/16 27/24/16 20/18/16
f 24/21/17 25/25/17 26/28/17 22/22/17
f 27/24/18 28/29/18 26/28/18 25/25/18
o foil.ending.1.3_ending.179
v 14.500000 0.250000 -6.500000
v 13.500000 0.250000 -6.500000
v 15.000000 -0.500000 -5.000000
v 15.000000 0.500000 -5.000000
v 15.000000 -0.500000 -7.000000
v 15.000000 0.500000 -7.000000
v 13.000000 -0.500000 -5.000000
v 13.000000 0.500000 -5.000000
v 13.000000 -0.500000 -7.000000
v 13.000000 0.500000 -7.000000
v 13.500000 0.250000 -5.000000
v 14.500000 0.250000 -5.000000
v 13.500000 0.500000 -7.000000
v 14.500000 0.500000 -7.000000
v 13.000000 0.500000 -6.500000
v 15.000000 0.500000 -6.500000
vt 0.125000 0.500000
vt 0.375000 0.500000
vt 0.625000 0.500000
vt 0.000000 0.000000
vt 0.000000 0.000000
vt 0.625000 0.250000
vt 0.375000 0.000000
vt 0.375000 0.250000
vt 0.625000 0.187500
vt 0.625000 0.000000
vt 0.375000 0.750000
vt 0.625000 0.750000
vt 0.625000 0.562500
vt 0.125000 0.750000
vt 0.000000 0.000000
vt 0.000000 0.000000
vt 0.000000 0.000000
vt 0.000000 0.000000
vt 0.000000 0.000000
vt 0.000000 0.000000
vt 0.000000 0.000000
vt 0.000000 0.000000
vt 0.000000 0.000000
vt 0.000000 0.000000
vt 0.125000 0.500000
vt 0.312500 0.500000
vt 0.312500 0.750000
vt 0.125000 0.750000
vt 0.000000 0.000000
vt 0.000000 0.000000
vn 0.0000 0.0000 -1.0000
vn 1.0000 0.0000 0.0000
vn 0.0000 1.0000 0.0000
vn -1.0000 0.0000 0.0000
vn 0.0000 -1.0000 0.0000
vn 0.0000 0.0000 1.0000
vn 0.4082 0.8165 0.4082
vn -0.4082 0.8165 0.4082
vn 0.0000 0.8944 0.4472
vn 0.4472 0.8944 0.0000
vn -0.4472 0.8944 0.0000
usemtl Material
s off
f 33/30/19 37/31/19 38/32/19 41/33/19 42/34/19 34/35/19
f 31/36/20 33/37/20 34/35/20 44/38/20 32/39/20
f 44/38/21 34/35/21 42/34/21
f 37/31/22 35/40/22 36/41/22 43/42/22 38/32/22
f 43/42/21 41/33/21 38/32/21
f 33/30/23 31/43/23 35/40/23 37/31/23
f 38/44/22 37/45/22 35/46/22 36/47/22
f 34/48/20 32/49/20 31/50/20 33/51/20
f 31/50/24 32/49/24 40/52/24 39/53/24 36/47/24 35/46/24
usemtl PathFace
f 30/54/21 39/55/21 40/56/21 29/57/21
f 41/33/25 43/42/25 30/58/25
f 44/38/26 42/34/26 29/59/26
f 29/59/27 42/34/27 41/33/27 30/58/27
f 39/55/28 30/58/28 43/42/28 36/41/28
f 29/57/29 40/56/29 32/39/29 44/38/29
o foil.through.2.1_through.089
v 15.000004 -0.500000 -3.000004
v 15.000004 0.500000 -3.000004
v 17.000004 -0.500000 -2.999996
v 17.000004 0.500000 -2.999996
v 14.999996 -0.500000 -1.000004
v 14.999996 0.500000 -1.000004
v 16.999996 -0.500000 -0.999996
v 16.999996 0.500000 -0.999996
v 16.999998 0.250000 -1.499996
v 14.999998 0.250000 -1.500004
v 17.000002 0.250000 -2.499996
v 15.000002 0.250000 -2.500004
vt 0.375000 0.000000
vt 0.625000 0.000000
vt 0.625000 0.250000
vt 0.375000 0.250000
vt 0.375000 0.500000
vt 0.625000 0.500000
vt 0.625000 0.750000
vt 0.375000 0.750000
vt 0.152781 0.750000
vt 0.152781 0.500000
vt 0.125000 0.500000
vt 0.125000 0.750000
vt 0.282406 0.500000
vt 0.282406 0.750000
vn 0.0000 0.0000 -1.0000
vn -0.0000 0.0000 1.0000
vn 1.0000 0.0000 0.0000
vn 0.0000 -1.0000 0.0000
vn -1.0000 0.0000 -0.0000
vn -0.0000 0.8944 0.4472
vn 0.0000 0.8944 -0.4472
vn 0.0000 1.0000 0.0000
usemtl Material
s off
f 45/60/30 46/61/30 48/62/30 47/63/30
f 51/64/31 52/65/31 50/66/31 49/67/31
f 48/62/32 55/68/32 53/69/32 52/65/32 51/64/32 47/70/32
f 47/70/33 51/64/33 49/67/33 45/71/33
f 46/61/34 45/71/34 49/67/34 50/66/34 54/72/34 56/73/34
usemtl PathFace
f 46/61/35 56/73/35 55/68/35 48/62/35
f 52/65/36 53/69/36 54/72/36 50/66/36
f 55/68/37 56/73/37 54/72/37 53/69/37
o foil.hole.3.0_Cube.091
v 17.500000 0.250000 -0.500000
v 17.000000 -0.500000 -1.000000
v 17.000000 0.500000 -1.000000
v 17.500000 0.500000 -1.000000
v 17.000000 0.500000 -0.500000
v 18.500000 0.250000 -0.500000
v 19.000000 -0.500000 -1.000000
v 19.000000 0.500000 -1.000000
v 18.500000 0.500000 -1.000000
v 19.000000 0.500000 -0.500000
v 17.500000 0.250000 0.500000
v 17.000000 -0.500000 1.000000
v 17.000000 0.500000 1.000000
v 17.500000 0.500000 1.000000
v 17.000000 0.500000 0.500000
v 18.500000 0.250000 0.500000
v 19.000000 -0.500000 1.000000
v 19.000000 0.500000 1.000000
v 18.500000 0.500000 1.000000
v 19.000000 0.500000 0.500000
vt 0.625000 0.187500
vt 0.000000 0.000000
vt 0.625000 0.250000
vt 0.375000 0.812500
vt 0.375000 0.750000
vt 1.000000 1.000000
vt 0.375000 0.812500
vt 0.375000 0.750000
vt 1.000000 1.000000
vt 0.625000 0.187500
vt 0.000000 0.000000
vt 0.625000 0.250000
vt 0.875000 0.500000
vt 0.000000 0.000000
vt 0.125000 0.500000
vt 0.000000 0.000000
vt 0.000000 0.000000
vt 1.000000 1.000000
vt 1.000000 1.000000
vt 0.000000 0.000000
vt 0.000000 0.000000
vn 0.0000 1.0000 0.0000
vn 0.0000 0.0000 -1.0000
vn 1.0000 0.0000 0.0000
vn -1.0000 0.0000 0.0000
vn 0.0000 0.0000 1.0000
vn 0.0000 -1.0000 0.0000
vn 0.4082 0.8165 0.4082
vn -0.4082 0.8165 0.4082
vn 0.4472 0.8944 0.0000
vn 0.4082 0.8165 -0.4082
vn -0.4472 0.8944 0.0000
vn -0.4082 0.8165 -0.4082
vn 0.0000 0.8944 0.4472
vn 0.0000 0.8944 -0.4472
usemtl Material
s off
f 61/74/38 60/75/38 59/76/38
f 66/77/38 64/78/38 65/79/38
f 71/80/38 69/81/38 70/82/38
f 76/83/38 75/84/38 74/85/38
f 59/76/39 60/75/39 65/79/39 64/78/39 63/86/39 58/87/39
f 64/78/40 66/77/40 76/83/40 74/85/40 73/88/40 63/86/40
f 58/87/41 68/89/41 69/81/41 71/80/41 61/74/41 59/76/41
f 69/81/42 68/89/42 73/88/42 74/85/42 75/84/42 70/82/42
f 68/89/43 58/87/43 63/86/43 73/88/43
usemtl PathFace
f 61/74/44 57/90/44 60/75/44
f 66/77/45 65/79/45 62/91/45
f 61/74/46 71/80/46 67/92/46 57/90/46
f 71/80/47 70/82/47 67/92/47
f 62/91/38 57/90/38 67/93/38 72/94/38
f 66/77/48 62/91/48 72/94/48 76/83/48
f 76/83/49 72/94/49 75/84/49
f 60/75/50 57/90/50 62/91/50 65/79/50
f 70/82/51 75/84/51 72/94/51 67/93/51
o foil.corner.3.1_corner.451
v 18.500000 0.250000 -1.500000
v 17.000000 -0.500000 -3.000000
v 17.000000 0.500000 -3.000000
v 17.000000 -0.500000 -1.000000
v 17.000000 0.500000 -1.000000
v 19.000000 -0.500000 -3.000000
v 19.000000 0.500000 -3.000000
v 19.000000 -0.500000 -1.000000
v 19.000000 0.500000 -1.000000
v 18.500000 0.250000 -3.000000
v 17.500000 0.250000 -3.000000
v 17.000000 0.250000 -1.500000
v 17.000000 0.250000 -2.500000
v 17.500000 0.000000 -2.500000
v 17.500000 0.000000 -2.500000
v 17.500000 0.250000 -2.500000
vt 0.375000 0.250000
vt 0.375000 0.500000
vt 0.625000 0.500000
vt 0.625000 0.250000
vt 0.375000 0.750000
vt 0.625000 0.750000
vt 0.125000 0.500000
vt 0.125000 0.750000
vt 0.000000 0.000000
vt 0.500000 0.937500
vt 0.500000 0.812500
vt 0.500000 0.187500
vt 0.500000 0.062500
vt 0.375000 0.250000
vt 0.000000 0.000000
vn 0.0000 0.0000 1.0000
vn 1.0000 0.0000 0.0000
vn 0.0000 -1.0000 0.0000
vn 0.0000 0.0000 -1.0000
vn -1.0000 0.0000 0.0000
vn 0.0000 1.0000 0.0000
vn -0.4472 0.8944 0.0000
vn 0.0000 0.8944 -0.4472
vn 0.0000 0.8944 0.4472
vn 0.4472 0.8944 0.0000
usemtl Material
s off
f 80/95/52 84/96/52 85/97/52 81/98/52
f 84/96/53 82/99/53 83/100/53 85/97/53
f 80/101/54 78/102/54 82/99/54 84/96/54
f 79/103/55 87/104/55 86/105/55 83/100/55 82/99/55 78/102/55
f 80/95/56 81/98/56 88/106/56 89/107/56 79/103/56 78/102/56
usemtl PathFace
f 77/108/57 86/105/57 87/104/57 92/109/57 89/107/57 88/106/57
f 86/105/58 77/108/58 85/97/58 83/100/58
f 81/98/59 85/97/59 77/108/59 88/106/59
f 79/103/60 89/107/60 92/109/60
f 79/103/61 92/109/61 87/104/61
l 90 87
l 90 87
l 90 89
l 91 90
l 90 92
o foil.corner.3.2_corner.452
v 17.500000 0.250000 -4.500000
v 19.000000 -0.500000 -3.000000
v 19.000000 0.500000 -3.000000
v 19.000000 -0.500000 -5.000000
v 19.000000 0.500000 -5.000000
v 17.000000 -0.500000 -3.000000
v 17.000000 0.500000 -3.000000
v 17.000000 -0.500000 -5.000000
v 17.000000 0.500000 -5.000000
v 17.500000 0.250000 -3.000000
v 18.500000 0.250000 -3.000000
v 19.000000 0.250000 -4.500000
v 19.000000 0.250000 -3.500000
v 18.500000 0.000000 -3.500000
v 18.500000 0.000000 -3.500000
v 18.500000 0.250000 -3.500000
vt 0.375000 0.250000
vt 0.375000 0.500000
vt 0.625000 0.500000
vt 0.625000 0.250000
vt 0.375000 0.750000
vt 0.625000 0.750000
vt 0.125000 0.500000
vt 0.125000 0.750000
vt 0.000000 0.000000
vt 0.500000 0.937500
vt 0.500000 0.812500
vt 0.500000 0.187500
vt 0.500000 0.062500
vt 0.375000 0.250000
vt 0.000000 0.000000
vn 0.0000 0.0000 -1.0000
vn -1.0000 0.0000 0.0000
vn 0.0000 -1.0000 0.0000
vn 0.0000 0.0000 1.0000
vn 1.0000 0.0000 0.0000
vn 0.0000 1.0000 0.0000
vn 0.4472 0.8944 0.0000
vn 0.0000 0.8944 0.4472
vn 0.0000 0.8944 -0.4472
vn -0.4472 0.8944 0.0000
usemtl Material
s off
f 96/110/62 100/111/62 101/112/62 97/113/62
f 100/111/63 98/114/63 99/115/63 101/112/63
f 96/116/64 94/117/64 98/114/64 100/111/64
f 95/118/65 103/119/65 102/120/65 99/115/65 98/114/65 94/117/65
f 96/110/66 97/113/66 104/121/66 105/122/66 95/118/66 94/117/66
usemtl PathFace
f 93/123/67 102/120/67 103/119/67 108/124/67 105/122/67 104/121/67
f 102/120/68 93/123/68 101/112/68 99/115/68
f 97/113/69 101/112/69 93/123/69 104/121/69
f 95/118/70 105/122/70 108/124/70
f 95/118/71 108/124/71 103/119/71
l 106 103
l 106 103
l 106 105
l 107 106
l 106 108
o foil.ending.4.1_ending.180
v 19.500000 0.250000 -1.500000
v 20.500000 0.250000 -1.500000
v 19.000000 -0.500000 -3.000000
v 19.000000 0.500000 -3.000000
v 19.000000 -0.500000 -1.000000
v 19.000000 0.500000 -1.000000
v 21.000000 -0.500000 -3.000000
v 21.000000 0.500000 -3.000000
v 21.000000 -0.500000 -1.000000
v 21.000000 0.500000 -1.000000
v 20.500000 0.250000 -3.000000
v 19.500000 0.250000 -3.000000
v 20.500000 0.500000 -1.000000
v 19.500000 0.500000 -1.000000
v 21.000000 0.500000 -1.500000
v 19.000000 0.500000 -1.500000
vt 0.125000 0.500000
vt 0.375000 0.500000
vt 0.625000 0.500000
vt 0.000000 0.000000
vt 0.000000 0.000000
vt 0.625000 0.250000
vt 0.375000 0.000000
vt 0.375000 0.250000
vt 0.625000 0.187500
vt 0.625000 0.000000
vt 0.375000 0.750000
vt 0.625000 0.750000
vt 0.625000 0.562500
vt 0.125000 0.750000
vt 0.000000 0.000000
vt 0.000000 0.000000
vt 0.000000 0.000000
vt 0.000000 0.000000
vt 0.000000 0.000000
vt 0.000000 0.000000
vt 0.000000 0.000000
vt 0.000000 0.000000
vt 0.000000 0.000000
vt 0.000000 0.000000
vt 0.125000 0.500000
vt 0.312500 0.500000
vt 0.312500 0.750000
vt 0.125000 0.750000
vt 0.000000 0.000000
vt 0.000000 0.000000
vn 0.0000 0.0000 1.0000
vn -1.0000 0.0000 0.0000
vn 0.0000 1.0000 0.0000
vn 1.0000 0.0000 0.0000
vn 0.0000 -1.0000 0.0000
vn 0.0000 0.0000 -1.0000
vn -0.4082 0.8165 -0.4082
vn 0.4082 0.8165 -0.4082
vn 0.0000 0.8944 -0.4472
vn -0.4472 0.8944 0.0000
vn 0.4472 0.8944 0.0000
usemtl Material
s off
f 113/125/72 117/126/72 118/127/72 121/128/72 122/129/72 114/130/72
f 111/131/73 113/132/73 114/130/73 124/133/73 112/134/73
f 124/133/74 114/130/74 122/129/74
f 117/126/75 115/135/75 116/136/75 123/137/75 118/127/75
f 123/137/74 121/128/74 118/127/74
f 113/125/76 111/138/76 115/135/76 117/126/76
f 118/139/75 117/140/75 115/141/75 116/142/75
f 114/143/73 112/144/73 111/145/73 113/146/73
f 111/145/77 112/144/77 120/147/77 119/148/77 116/142/77 115/141/77
usemtl PathFace
f 110/149/74 119/150/74 120/151/74 109/152/74
f 121/128/78 123/137/78 110/153/78
f 124/133/79 122/129/79 109/154/79
f 109/154/80 122/129/80 121/128/80 110/153/80
f 119/150/81 110/153/81 123/137/81 116/136/81
f 109/152/82 120/151/82 112/134/82 124/133/82
o foil.corner.4.2_corner.453
v 20.500000 0.250000 -4.500000
v 19.000000 -0.500000 -3.000000
v 19.000000 0.500000 -3.000000
v 21.000000 -0.500000 -3.000000
v 21.000000 0.500000 -3.000000
v 19.000000 -0.500000 -5.000000
v 19.000000 0.500000 -5.000000
v 21.000000 -0.500000 -5.000000
v 21.000000 0.500000 -5.000000
v 19.000000 0.250000 -4.500000
v 19.000000 0.250000 -3.500000
v 20.500000 0.250000 -3.000000
v 19.500000 0.250000 -3.000000
v 19.500000 0.000000 -3.500000
v 19.500000 0.000000 -3.500000
v 19.500000 0.250000 -3.500000
vt 0.375000 0.250000
vt 0.375000 0.500000
vt 0.625000 0.500000
vt 0.625000 0.250000
vt 0.375000 0.750000
vt 0.625000 0.750000
vt 0.125000 0.500000
vt 0.125000 0.750000
vt 0.000000 0.000000
vt 0.500000 0.937500
vt 0.500000 0.812500
vt 0.500000 0.187500
vt 0.500000 0.062500
vt 0.375000 0.250000
vt 0.000000 0.000000
vn 1.0000 0.0000 0.0000
vn 0.0000 0.0000 -1.0000
vn 0.0000 -1.0000 0.0000
vn -1.0000 0.0000 0.0000
vn 0.0000 0.0000 1.0000
vn 0.0000 1.0000 0.0000
vn 0.0000 0.8944 0.4472
vn -0.4472 0.8944 0.0000
vn 0.4472 0.8944 0.0000
vn 0.0000 0.8944 -0.4472
usemtl Material
s off
f 128/155/83 132/156/83 133/157/83 129/158/83
f 132/156/84 130/159/84 131/160/84 133/157/84
f 128/161/85 126/162/85 130/159/85 132/156/85
f 127/163/86 135/164/86 134/165/86 131/160/86 130/159/86 126/162/86
f 128/155/87 129/158/87 136/166/87 137/167/87 127/163/87 126/162/87
usemtl PathFace
f 125/168/88 134/165/88 135/164/88 140/169/88 137/167/88 136/166/88
f 134/165/89 125/168/89 133/157/89 131/160/89
f 129/158/90 133/157/90 125/168/90 136/166/90
f 127/163/91 137/167/91 140/169/91
f 127/163/92 140/169/92 135/164/92
l 138 135
l 138 135
l 138 137
l 139 138
l 138 140
