# Blender v2.90.1 OBJ File: 'script_generator.blend'
# www.blender.org
mtllib 54f_path.mtl
o foil.ending.0.2_ending.215
v 11.500000 0.250000 -4.500000
v 11.500000 0.250000 -3.500000
v 13.000000 -0.500000 -5.000000
v 13.000000 0.500000 -5.000000
v 11.000000 -0.500000 -5.000000
v 11.000000 0.500000 -5.000000
v 13.000000 -0.500000 -3.000000
v 13.000000 0.500000 -3.000000
v 11.000000 -0.500000 -3.000000
v 11.000000 0.500000 -3.000000
v 13.000000 0.250000 -3.500000
v 13.000000 0.250000 -4.500000
v 11.000000 0.500000 -3.500000
v 11.000000 0.500000 -4.500000
v 11.500000 0.500000 -3.000000
v 11.500000 0.500000 -5.000000
vt 0.125000 0.500000
vt 0.375000 0.500000
vt 0.625000 0.500000
vt 0.000000 0.000000
vt 0.000000 0.000000
vt 0.625000 0.250000
vt 0.375000 0.000000
vt 0.375000 0.250000
vt 0.625000 0.187500
vt 0.625000 0.000000
vt 0.375000 0.750000
vt 0.625000 0.750000
vt 0.625000 0.562500
vt 0.125000 0.750000
vt 0.000000 0.000000
vt 0.000000 0.000000
vt 0.000000 0.000000
vt 0.000000 0.000000
vt 0.000000 0.000000
vt 0.000000 0.000000
vt 0.000000 0.000000
vt 0.000000 0.000000
vt 0.000000 0.000000
vt 0.000000 0.000000
vt 0.125000 0.500000
vt 0.312500 0.500000
vt 0.312500 0.750000
vt 0.125000 0.750000
vt 0.000000 0.000000
vt 0.000000 0.000000
vn -1.0000 0.0000 0.0000
vn 0.0000 0.0000 -1.0000
vn 0.0000 1.0000 0.0000
vn 0.0000 0.0000 1.0000
vn 0.0000 -1.0000 0.0000
vn 1.0000 0.0000 0.0000
vn 0.4082 0.8165 -0.4082
vn 0.4082 0.8165 0.4082
vn 0.4472 0.8944 0.0000
vn 0.0000 0.8944 -0.4472
vn 0.0000 0.8944 0.4472
usemtl Material
s off
f 5/1/1 9/2/1 10/3/1 13/4/1 14/5/1 6/6/1
f 3/7/2 5/8/2 6/6/2 16/9/2 4/10/2
f 16/9/3 6/6/3 14/5/3
f 9/2/4 7/11/4 8/12/4 15/13/4 10/3/4
f 15/13/3 13/4/3 10/3/3
f 5/1/5 3/14/5 7/11/5 9/2/5
f 10/15/4 9/16/4 7/17/4 8/18/4
f 6/19/2 4/20/2 3/21/2 5/22/2
f 3/21/6 4/20/6 12/23/6 11/24/6 8/18/6 7/17/6
usemtl PathFace
f 2/25/3 11/26/3 12/27/3 1/28/3
f 13/4/7 15/13/7 2/29/7
f 16/9/8 14/5/8 1/30/8
f 1/30/9 14/5/9 13/4/9 2/29/9
f 11/26/10 2/29/10 15/13/10 8/12/10
f 1/28/11 12/27/11 4/10/11 16/9/11
o foil.ending.0.3_ending.216
v 11.500000 0.250000 -5.500000
v 12.500000 0.250000 -5.500000
v 11.000000 -0.500000 -7.000000
v 11.000000 0.500000 -7.000000
v 11.000000 -0.500000 -5.000000
v 11.000000 0.500000 -5.000000
v 13.000000 -0.500000 -7.000000
v 13.000000 0.500000 -7.000000
v 13.000000 -0.500000 -5.000000
v 13.000000 0.500000 -5.000000
v 12.500000 0.250000 -7.000000
v 11.500000 0.250000 -7.000000
v 12.500000 0.500000 -5.000000
v 11.500000 0.500000 -5.000000
v 13.000000 0.500000 -5.500000
v 11.000000 0.500000 -5.500000
vt 0.125000 0.500000
vt 0.375000 0.500000
vt 0.625000 0.500000
vt 0.000000 0.000000
vt 0.000000 0.000000
vt 0.625000 0.250000
vt 0.375000 0.000000
vt 0.375000 0.250000
vt 0.625000 0.187500
vt 0.625000 0.000000
vt 0.375000 0.750000
vt 0.625000 0.750000
vt 0.625000 0.562500
vt 0.125000 0.750000
vt 0.000000 0.000000
vt 0.000000 0.000000
vt 0.000000 0.000000
vt 0.000000 0.000000
vt 0.000000 0.000000
vt 0.000000 0.000000
vt 0.000000 0.000000
vt 0.000000 0.000000
vt 0.000000 0.000000
vt 0.000000 0.000000
vt 0.125000 0.500000
vt 0.312500 0.500000
vt 0.312500 0.750000
vt 0.125000 0.750000
vt 0.000000 0.000000
vt 0.000000 0.000000
vn 0.0000 0.0000 1.0000
vn -1.0000 0.0000 0.0000
vn 0.0000 1.0000 0.0000
vn 1.0000 0.0000 0.0000
vn 0.0000 -1.0000 0.0000
vn 0.0000 0.0000 -1.0000
vn -0.4082 0.8165 -0.4082
vn 0.4082 0.8165 -0.4082
vn 0.0000 0.8944 -0.4472
vn -0.4472 0.8944 0.0000
vn 0.4472 0.8944 0.0000
usemtl Material
s off
f 21/31/12 25/32/12 26/33/12 29/34/12 30/35/12 22/36/12
f 19/37/13 21/38/13 22/36/13 32/39/13 20/40/13
f 32/39/14 22/36/14 30/35/14
f 25/32/15 23/41/15 24/42/15 31/43/15 26/33/15
f 31/43/14 29/34/14 26/33/14
f 21/31/16 19/44/16 23/41/16 25/32/16
f 26/45/15 25/46/15 23/47/15 24/48/15
f 22/49/13 20/50/13 19/51/13 21/52/13
f 19/51/17 20/50/17 28/53/17 27/54/17 24/48/17 23/47/17
usemtl PathFace
f 18/55/14 27/56/14 28/57/14 17/58/14
f 29/34/18 31/43/18 18/59/18
f 32/39/19 30/35/19 17/60/19
f 17/60/20 30/35/20 29/34/20 18/59/20
f 27/56/21 18/59/21 31/43/21 24/42/21
f 17/58/22 28/57/22 20/40/22 32/39/22
o foil.corner.0.4_corner.544
v 11.500000 0.250000 -8.500000
v 13.000000 -0.500000 -7.000000
v 13.000000 0.500000 -7.000000
v 13.000000 -0.500000 -9.000000
v 13.000000 0.500000 -9.000000
v 11.000000 -0.500000 -7.000000
v 11.000000 0.500000 -7.000000
v 11.000000 -0.500000 -9.000000
v 11.000000 0.500000 -9.000000
v 11.500000 0.250000 -7.000000
v 12.500000 0.250000 -7.000000
v 13.000000 0.250000 -8.500000
v 13.000000 0.250000 -7.500000
v 12.500000 0.000000 -7.500000
v 12.500000 0.000000 -7.500000
v 12.500000 0.250000 -7.500000
vt 0.375000 0.250000
vt 0.375000 0.500000
vt 0.625000 0.500000
vt 0.625000 0.250000
vt 0.375000 0.750000
vt 0.625000 0.750000
vt 0.125000 0.500000
vt 0.125000 0.750000
vt 0.000000 0.000000
vt 0.500000 0.937500
vt 0.500000 0.812500
vt 0.500000 0.187500
vt 0.500000 0.062500
vt 0.375000 0.250000
vt 0.000000 0.000000
vn 0.0000 0.0000 -1.0000
vn -1.0000 0.0000 0.0000
vn 0.0000 -1.0000 0.0000
vn 0.0000 0.0000 1.0000
vn 1.0000 0.0000 0.0000
vn 0.0000 1.0000 0.0000
vn 0.4472 0.8944 0.0000
vn 0.0000 0.8944 0.4472
vn 0.0000 0.8944 -0.4472
vn -0.4472 0.8944 0.0000
usemtl Material
s off
f 36/61/23 40/62/23 41/63/23 37/64/23
f 40/62/24 38/65/24 39/66/24 41/63/24
f 36/67/25 34/68/25 38/65/25 40/62/25
f 35/69/26 43/70/26 42/71/26 39/66/26 38/65/26 34/68/26
f 36/61/27 37/64/27 44/72/27 45/73/27 35/69/27 34/68/27
usemtl PathFace
f 33/74/28 42/71/28 43/70/28 48/75/28 45/73/28 44/72/28
f 42/71/29 33/74/29 41/63/29 39/66/29
f 37/64/30 41/63/30 33/74/30 44/72/30
f 35/69/31 45/73/31 48/75/31
f 35/69/32 48/75/32 43/70/32
l 46 43
l 46 43
l 46 45
l 47 46
l 46 48
o foil.hole.1.1_Cube.109
v 13.500000 0.250000 -2.500000
v 13.000000 -0.500000 -3.000000
v 13.000000 0.500000 -3.000000
v 13.500000 0.500000 -3.000000
v 13.000000 0.500000 -2.500000
v 14.500000 0.250000 -2.500000
v 15.000000 -0.500000 -3.000000
v 15.000000 0.500000 -3.000000
v 14.500000 0.500000 -3.000000
v 15.000000 0.500000 -2.500000
v 13.500000 0.250000 -1.500000
v 13.000000 -0.500000 -1.000000
v 13.000000 0.500000 -1.000000
v 13.500000 0.500000 -1.000000
v 13.000000 0.500000 -1.500000
v 14.500000 0.250000 -1.500000
v 15.000000 -0.500000 -1.000000
v 15.000000 0.500000 -1.000000
v 14.500000 0.500000 -1.000000
v 15.000000 0.500000 -1.500000
vt 0.625000 0.187500
vt 0.000000 0.000000
vt 0.625000 0.250000
vt 0.375000 0.812500
vt 0.375000 0.750000
vt 1.000000 1.000000
vt 0.375000 0.812500
vt 0.375000 0.750000
vt 1.000000 1.000000
vt 0.625000 0.187500
vt 0.000000 0.000000
vt 0.625000 0.250000
vt 0.875000 0.500000
vt 0.000000 0.000000
vt 0.125000 0.500000
vt 0.000000 0.000000
vt 0.000000 0.000000
vt 1.000000 1.000000
vt 1.000000 1.000000
vt 0.000000 0.000000
vt 0.000000 0.000000
vn 0.0000 1.0000 0.0000
vn 0.0000 0.0000 -1.0000
vn 1.0000 0.0000 0.0000
vn -1.0000 0.0000 0.0000
vn 0.0000 0.0000 1.0000
vn 0.0000 -1.0000 0.0000
vn 0.4082 0.8165 0.4082
vn -0.4082 0.8165 0.4082
vn 0.4472 0.8944 0.0000
vn 0.4082 0.8165 -0.4082
vn -0.4472 0.8944 0.0000
vn -0.4082 0.8165 -0.4082
vn 0.0000 0.8944 0.4472
vn 0.0000 0.8944 -0.4472
usemtl Material
s off
f 53/76/33 52/77/33 51/78/33
f 58/79/33 56/80/33 57/81/33
f 63/82/33 61/83/33 62/84/33
f 68/85/33 67/86/33 66/87/33
f 51/78/34 52/77/34 57/81/34 56/80/34 55/88/34 50/89/34
f 56/80/35 58/79/35 68/85/35 66/87/35 65/90/35 55/88/35
f 50/89/36 60/91/36 61/83/36 63/82/36 53/76/36 51/78/36
f 61/83/37 60/91/37 65/90/37 66/87/37 67/86/37 62/84/37
f 60/91/38 50/89/38 55/88/38 65/90/38
usemtl PathFace
f 53/76/39 49/92/39 52/77/39
f 58/79/40 57/81/40 54/93/40
f 53/76/41 63/82/41 59/94/41 49/92/41
f 63/82/42 62/84/42 59/94/42
f 54/93/33 49/92/33 59/95/33 64/96/33
f 58/79/43 54/93/43 64/96/43 68/85/43
f 68/85/44 64/96/44 67/86/44
f 52/77/45 49/92/45 54/93/45 57/81/45
f 62/84/46 67/86/46 64/96/46 59/95/46
o foil.through.1.2_through.102
v 15.000004 -0.500000 -3.000004
v 15.000004 0.500000 -3.000004
v 13.000004 -0.500000 -2.999996
v 13.000004 0.500000 -2.999996
v 14.999996 -0.500000 -5.000004
v 14.999996 0.500000 -5.000004
v 12.999996 -0.500000 -4.999996
v 12.999996 0.500000 -4.999996
v 12.999998 0.250000 -4.499997
v 14.999998 0.250000 -4.500004
v 13.000002 0.250000 -3.499996
v 15.000002 0.250000 -3.500004
vt 0.375000 0.000000
vt 0.625000 0.000000
vt 0.625000 0.250000
vt 0.375000 0.250000
vt 0.375000 0.500000
vt 0.625000 0.500000
vt 0.625000 0.750000
vt 0.375000 0.750000
vt 0.152781 0.750000
vt 0.152781 0.500000
vt 0.125000 0.500000
vt 0.125000 0.750000
vt 0.282406 0.500000
vt 0.282406 0.750000
vn 0.0000 0.0000 1.0000
vn -0.0000 0.0000 -1.0000
vn -1.0000 0.0000 0.0000
vn 0.0000 -1.0000 0.0000
vn 1.0000 0.0000 -0.0000
vn -0.0000 0.8944 -0.4472
vn 0.0000 0.8944 0.4472
vn 0.0000 1.0000 0.0000
usemtl Material
s off
f 69/97/47 70/98/47 72/99/47 71/100/47
f 75/101/48 76/102/48 74/103/48 73/104/48
f 72/99/49 79/105/49 77/106/49 76/102/49 75/101/49 71/107/49
f 71/107/50 75/101/50 73/104/50 69/108/50
f 70/98/51 69/108/51 73/104/51 74/103/51 78/109/51 80/110/51
usemtl PathFace
f 70/98/52 80/110/52 79/105/52 72/99/52
f 76/102/53 77/106/53 78/109/53 74/103/53
f 79/105/54 80/110/54 78/109/54 77/106/54
o foil.through.1.4_through.103
v 13.000004 -0.500000 -9.000004
v 13.000004 0.500000 -9.000004
v 15.000004 -0.500000 -8.999996
v 15.000004 0.500000 -8.999996
v 12.999996 -0.500000 -7.000004
v 12.999996 0.500000 -7.000004
v 14.999996 -0.500000 -6.999996
v 14.999996 0.500000 -6.999996
v 14.999998 0.250000 -7.499996
v 12.999998 0.250000 -7.500004
v 15.000002 0.250000 -8.499996
v 13.000002 0.250000 -8.500004
vt 0.375000 0.000000
vt 0.625000 0.000000
vt 0.625000 0.250000
vt 0.375000 0.250000
vt 0.375000 0.500000
vt 0.625000 0.500000
vt 0.625000 0.750000
vt 0.375000 0.750000
vt 0.152781 0.750000
vt 0.152781 0.500000
vt 0.125000 0.500000
vt 0.125000 0.750000
vt 0.282406 0.500000
vt 0.282406 0.750000
vn 0.0000 0.0000 -1.0000
vn -0.0000 0.0000 1.0000
vn 1.0000 0.0000 0.0000
vn 0.0000 -1.0000 0.0000
vn -1.0000 0.0000 -0.0000
vn -0.0000 0.8944 0.4472
vn 0.0000 0.8944 -0.4472
vn 0.0000 1.0000 0.0000
usemtl Material
s off
f 81/111/55 82/112/55 84/113/55 83/114/55
f 87/115/56 88/116/56 86/117/56 85/118/56
f 84/113/57 91/119/57 89/120/57 88/116/57 87/115/57 83/121/57
f 83/121/58 87/115/58 85/118/58 81/122/58
f 82/112/59 81/122/59 85/118/59 86/117/59 90/123/59 92/124/59
usemtl PathFace
f 82/112/60 92/124/60 91/119/60 84/113/60
f 88/116/61 89/120/61 90/123/61 86/117/61
f 91/119/62 92/124/62 90/123/62 89/120/62
o foil.corner.2.2_corner.545
v 16.500000 0.250000 -3.500000
v 15.000000 -0.500000 -5.000000
v 15.000000 0.500000 -5.000000
v 15.000000 -0.500000 -3.000000
v 15.000000 0.500000 -3.000000
v 17.000000 -0.500000 -5.000000
v 17.000000 0.500000 -5.000000
v 17.000000 -0.500000 -3.000000
v 17.000000 0.500000 -3.000000
v 16.500000 0.250000 -5.000000
v 15.500000 0.250000 -5.000000
v 15.000000 0.250000 -3.500000
v 15.000000 0.250000 -4.500000
v 15.500000 0.000000 -4.500000
v 15.500000 0.000000 -4.500000
v 15.500000 0.250000 -4.500000
vt 0.375000 0.250000
vt 0.375000 0.500000
vt 0.625000 0.500000
vt 0.625000 0.250000
vt 0.375000 0.750000
vt 0.625000 0.750000
vt 0.125000 0.500000
vt 0.125000 0.750000
vt 0.000000 0.000000
vt 0.500000 0.937500
vt 0.500000 0.812500
vt 0.500000 0.187500
vt 0.500000 0.062500
vt 0.375000 0.250000
vt 0.000000 0.000000
vn 0.0000 0.0000 1.0000
vn 1.0000 0.0000 0.0000
vn 0.0000 -1.0000 0.0000
vn 0.0000 0.0000 -1.0000
vn -1.0000 0.0000 0.0000
vn 0.0000 1.0000 0.0000
vn -0.4472 0.8944 0.0000
vn 0.0000 0.8944 -0.4472
vn 0.0000 0.8944 0.4472
vn 0.4472 0.8944 0.0000
usemtl Material
s off
f 96/125/63 100/126/63 101/127/63 97/128/63
f 100/126/64 98/129/64 99/130/64 101/127/64
f 96/131/65 94/132/65 98/129/65 100/126/65
f 95/133/66 103/134/66 102/135/66 99/130/66 98/129/66 94/132/66
f 96/125/67 97/128/67 104/136/67 105/137/67 95/133/67 94/132/67
usemtl PathFace
f 93/138/68 102/135/68 103/134/68 108/139/68 105/137/68 104/136/68
f 102/135/69 93/138/69 101/127/69 99/130/69
f 97/128/70 101/127/70 93/138/70 104/136/70
f 95/133/71 105/137/71 108/139/71
f 95/133/72 108/139/72 103/134/72
l 106 103
l 106 103
l 106 105
l 107 106
l 106 108
o foil.through.2.3_through.104
v 15.000000 -0.500000 -5.000000
v 15.000000 0.500000 -5.000000
v 15.000000 -0.500000 -7.000000
v 15.000000 0.500000 -7.000000
v 17.000000 -0.500000 -5.000000
v 17.000000 0.500000 -5.000000
v 17.000000 -0.500000 -7.000000
v 17.000000 0.500000 -7.000000
v 16.500000 0.250000 -7.000000
v 16.500000 0.250000 -5.000000
v 15.500000 0.250000 -7.000000
v 15.500000 0.250000 -5.000000
vt 0.375000 0.000000
vt 0.625000 0.000000
vt 0.625000 0.250000
vt 0.375000 0.250000
vt 0.375000 0.500000
vt 0.625000 0.500000
vt 0.625000 0.750000
vt 0.375000 0.750000
vt 0.152781 0.750000
vt 0.152781 0.500000
vt 0.125000 0.500000
vt 0.125000 0.750000
vt 0.282406 0.500000
vt 0.282406 0.750000
vn -1.0000 0.0000 0.0000
vn 1.0000 0.0000 0.0000
vn 0.0000 0.0000 -1.0000
vn 0.0000 -1.0000 0.0000
vn 0.0000 0.0000 1.0000
vn 0.4472 0.8944 0.0000
vn -0.4472 0.8944 0.0000
vn 0.0000 1.0000 0.0000
usemtl Material
s off
f 109/140/73 110/141/73 112/142/73 111/143/73
f 115/144/74 116/145/74 114/146/74 113/147/74
f 112/142/75 119/148/75 117/149/75 116/145/75 115/144/75 111/150/75
f 111/150/76 115/144/76 113/147/76 109/151/76
f 110/141/77 109/151/77 113/147/77 114/146/77 118/152/77 120/153/77
usemtl PathFace
f 110/141/78 120/153/78 119/148/78 112/142/78
f 116/145/79 117/149/79 118/152/79 114/146/79
f 119/148/80 120/153/80 118/152/80 117/149/80
o foil.corner.2.4_corner.546
v 16.500000 0.250000 -8.500000
v 15.000000 -0.500000 -7.000000
v 15.000000 0.500000 -7.000000
v 17.000000 -0.500000 -7.000000
v 17.000000 0.500000 -7.000000
v 15.000000 -0.500000 -9.000000
v 15.000000 0.500000 -9.000000
v 17.000000 -0.500000 -9.000000
v 17.000000 0.500000 -9.000000
v 15.000000 0.250000 -8.500000
v 15.000000 0.250000 -7.500000
v 16.500000 0.250000 -7.000000
v 15.500000 0.250000 -7.000000
v 15.500000 0.000000 -7.500000
v 15.500000 0.000000 -7.500000
v 15.500000 0.250000 -7.500000
vt 0.375000 0.250000
vt 0.375000 0.500000
vt 0.625000 0.500000
vt 0.625000 0.250000
vt 0.375000 0.750000
vt 0.625000 0.750000
vt 0.125000 0.500000
vt 0.125000 0.750000
vt 0.000000 0.000000
vt 0.500000 0.937500
vt 0.500000 0.812500
vt 0.500000 0.187500
vt 0.500000 0.062500
vt 0.375000 0.250000
vt 0.000000 0.000000
vn 1.0000 0.0000 0.0000
vn 0.0000 0.0000 -1.0000
vn 0.0000 -1.0000 0.0000
vn -1.0000 0.0000 0.0000
vn 0.0000 0.0000 1.0000
vn 0.0000 1.0000 0.0000
vn 0.0000 0.8944 0.4472
vn -0.4472 0.8944 0.0000
vn 0.4472 0.8944 0.0000
vn 0.0000 0.8944 -0.4472
usemtl Material
s off
f 124/154/81 128/155/81 129/156/81 125/157/81
f 128/155/82 126/158/82 127/159/82 129/156/82
f 124/160/83 122/161/83 126/158/83 128/155/83
f 123/162/84 131/163/84 130/164/84 127/159/84 126/158/84 122/161/84
f 124/154/85 125/157/85 132/165/85 133/166/85 123/162/85 122/161/85
usemtl PathFace
f 121/167/86 130/164/86 131/163/86 136/168/86 133/166/86 132/165/86
f 130/164/87 121/167/87 129/156/87 127/159/87
f 125/157/88 129/156/88 121/167/88 132/165/88
f 123/162/89 133/166/89 136/168/89
f 123/162/90 136/168/90 131/163/90
l 134 131
l 134 131
l 134 133
l 135 134
l 134 136
