# Blender v2.90.1 OBJ File: 'script_generator.blend'
# www.blender.org
mtllib 58s_path.mtl
o corner.2.3_corner.577
v 3.500000 0.250000 -5.500000
v 5.000000 -0.500000 -7.000000
v 5.000000 0.500000 -7.000000
v 3.000000 -0.500000 -7.000000
v 3.000000 0.500000 -7.000000
v 5.000000 -0.500000 -5.000000
v 5.000000 0.500000 -5.000000
v 3.000000 -0.500000 -5.000000
v 3.000000 0.500000 -5.000000
v 5.000000 0.250000 -5.500000
v 5.000000 0.250000 -6.500000
v 3.500000 0.250000 -7.000000
v 4.500000 0.250000 -7.000000
v 4.500000 0.000000 -6.500000
v 4.500000 0.000000 -6.500000
v 4.500000 0.250000 -6.500000
vt 0.375000 0.250000
vt 0.375000 0.500000
vt 0.625000 0.500000
vt 0.625000 0.250000
vt 0.375000 0.750000
vt 0.625000 0.750000
vt 0.125000 0.500000
vt 0.125000 0.750000
vt 0.000000 0.000000
vt 0.500000 0.937500
vt 0.500000 0.812500
vt 0.500000 0.187500
vt 0.500000 0.062500
vt 0.375000 0.250000
vt 0.000000 0.000000
vn -1.0000 0.0000 0.0000
vn 0.0000 0.0000 1.0000
vn 0.0000 -1.0000 0.0000
vn 1.0000 0.0000 0.0000
vn 0.0000 0.0000 -1.0000
vn 0.0000 1.0000 0.0000
vn 0.0000 0.8944 -0.4472
vn 0.4472 0.8944 0.0000
vn -0.4472 0.8944 0.0000
vn 0.0000 0.8944 0.4472
usemtl Material
s off
f 4/1/1 8/2/1 9/3/1 5/4/1
f 8/2/2 6/5/2 7/6/2 9/3/2
f 4/7/3 2/8/3 6/5/3 8/2/3
f 3/9/4 11/10/4 10/11/4 7/6/4 6/5/4 2/8/4
f 4/1/5 5/4/5 12/12/5 13/13/5 3/9/5 2/8/5
usemtl PathFace
f 1/14/6 10/11/6 11/10/6 16/15/6 13/13/6 12/12/6
f 10/11/7 1/14/7 9/3/7 7/6/7
f 5/4/8 9/3/8 1/14/8 12/12/8
f 3/9/9 13/13/9 16/15/9
f 3/9/10 16/15/10 11/10/10
l 14 11
l 14 11
l 14 13
l 15 14
l 14 16
o corner.2.4_corner.578
v 3.500000 0.250000 -8.500000
v 5.000000 -0.500000 -7.000000
v 5.000000 0.500000 -7.000000
v 5.000000 -0.500000 -9.000000
v 5.000000 0.500000 -9.000000
v 3.000000 -0.500000 -7.000000
v 3.000000 0.500000 -7.000000
v 3.000000 -0.500000 -9.000000
v 3.000000 0.500000 -9.000000
v 3.500000 0.250000 -7.000000
v 4.500000 0.250000 -7.000000
v 5.000000 0.250000 -8.500000
v 5.000000 0.250000 -7.500000
v 4.500000 0.000000 -7.500000
v 4.500000 0.000000 -7.500000
v 4.500000 0.250000 -7.500000
vt 0.375000 0.250000
vt 0.375000 0.500000
vt 0.625000 0.500000
vt 0.625000 0.250000
vt 0.375000 0.750000
vt 0.625000 0.750000
vt 0.125000 0.500000
vt 0.125000 0.750000
vt 0.000000 0.000000
vt 0.500000 0.937500
vt 0.500000 0.812500
vt 0.500000 0.187500
vt 0.500000 0.062500
vt 0.375000 0.250000
vt 0.000000 0.000000
vn 0.0000 0.0000 -1.0000
vn -1.0000 0.0000 0.0000
vn 0.0000 -1.0000 0.0000
vn 0.0000 0.0000 1.0000
vn 1.0000 0.0000 0.0000
vn 0.0000 1.0000 0.0000
vn 0.4472 0.8944 0.0000
vn 0.0000 0.8944 0.4472
vn 0.0000 0.8944 -0.4472
vn -0.4472 0.8944 0.0000
usemtl Material
s off
f 20/16/11 24/17/11 25/18/11 21/19/11
f 24/17/12 22/20/12 23/21/12 25/18/12
f 20/22/13 18/23/13 22/20/13 24/17/13
f 19/24/14 27/25/14 26/26/14 23/21/14 22/20/14 18/23/14
f 20/16/15 21/19/15 28/27/15 29/28/15 19/24/15 18/23/15
usemtl PathFace
f 17/29/16 26/26/16 27/25/16 32/30/16 29/28/16 28/27/16
f 26/26/17 17/29/17 25/18/17 23/21/17
f 21/19/18 25/18/18 17/29/18 28/27/18
f 19/24/19 29/28/19 32/30/19
f 19/24/20 32/30/20 27/25/20
l 30 27
l 30 27
l 30 29
l 31 30
l 30 32
o corner.3.2_corner.579
v 5.500000 0.250000 -3.500000
v 7.000000 -0.500000 -5.000000
v 7.000000 0.500000 -5.000000
v 5.000000 -0.500000 -5.000000
v 5.000000 0.500000 -5.000000
v 7.000000 -0.500000 -3.000000
v 7.000000 0.500000 -3.000000
v 5.000000 -0.500000 -3.000000
v 5.000000 0.500000 -3.000000
v 7.000000 0.250000 -3.500000
v 7.000000 0.250000 -4.500000
v 5.500000 0.250000 -5.000000
v 6.500000 0.250000 -5.000000
v 6.500000 0.000000 -4.500000
v 6.500000 0.000000 -4.500000
v 6.500000 0.250000 -4.500000
vt 0.375000 0.250000
vt 0.375000 0.500000
vt 0.625000 0.500000
vt 0.625000 0.250000
vt 0.375000 0.750000
vt 0.625000 0.750000
vt 0.125000 0.500000
vt 0.125000 0.750000
vt 0.000000 0.000000
vt 0.500000 0.937500
vt 0.500000 0.812500
vt 0.500000 0.187500
vt 0.500000 0.062500
vt 0.375000 0.250000
vt 0.000000 0.000000
vn -1.0000 0.0000 0.0000
vn 0.0000 0.0000 1.0000
vn 0.0000 -1.0000 0.0000
vn 1.0000 0.0000 0.0000
vn 0.0000 0.0000 -1.0000
vn 0.0000 1.0000 0.0000
vn 0.0000 0.8944 -0.4472
vn 0.4472 0.8944 0.0000
vn -0.4472 0.8944 0.0000
vn 0.0000 0.8944 0.4472
usemtl Material
s off
f 36/31/21 40/32/21 41/33/21 37/34/21
f 40/32/22 38/35/22 39/36/22 41/33/22
f 36/37/23 34/38/23 38/35/23 40/32/23
f 35/39/24 43/40/24 42/41/24 39/36/24 38/35/24 34/38/24
f 36/31/25 37/34/25 44/42/25 45/43/25 35/39/25 34/38/25
usemtl PathFace
f 33/44/26 42/41/26 43/40/26 48/45/26 45/43/26 44/42/26
f 42/41/27 33/44/27 41/33/27 39/36/27
f 37/34/28 41/33/28 33/44/28 44/42/28
f 35/39/29 45/43/29 48/45/29
f 35/39/30 48/45/30 43/40/30
l 46 43
l 46 43
l 46 45
l 47 46
l 46 48
o corner.3.3_corner.580
v 6.500000 0.250000 -6.500000
v 5.000000 -0.500000 -5.000000
v 5.000000 0.500000 -5.000000
v 7.000000 -0.500000 -5.000000
v 7.000000 0.500000 -5.000000
v 5.000000 -0.500000 -7.000000
v 5.000000 0.500000 -7.000000
v 7.000000 -0.500000 -7.000000
v 7.000000 0.500000 -7.000000
v 5.000000 0.250000 -6.500000
v 5.000000 0.250000 -5.500000
v 6.500000 0.250000 -5.000000
v 5.500000 0.250000 -5.000000
v 5.500000 0.000000 -5.500000
v 5.500000 0.000000 -5.500000
v 5.500000 0.250000 -5.500000
vt 0.375000 0.250000
vt 0.375000 0.500000
vt 0.625000 0.500000
vt 0.625000 0.250000
vt 0.375000 0.750000
vt 0.625000 0.750000
vt 0.125000 0.500000
vt 0.125000 0.750000
vt 0.000000 0.000000
vt 0.500000 0.937500
vt 0.500000 0.812500
vt 0.500000 0.187500
vt 0.500000 0.062500
vt 0.375000 0.250000
vt 0.000000 0.000000
vn 1.0000 0.0000 0.0000
vn 0.0000 0.0000 -1.0000
vn 0.0000 -1.0000 0.0000
vn -1.0000 0.0000 0.0000
vn 0.0000 0.0000 1.0000
vn 0.0000 1.0000 0.0000
vn 0.0000 0.8944 0.4472
vn -0.4472 0.8944 0.0000
vn 0.4472 0.8944 0.0000
vn 0.0000 0.8944 -0.4472
usemtl Material
s off
f 52/46/31 56/47/31 57/48/31 53/49/31
f 56/47/32 54/50/32 55/51/32 57/48/32
f 52/52/33 50/53/33 54/50/33 56/47/33
f 51/54/34 59/55/34 58/56/34 55/51/34 54/50/34 50/53/34
f 52/46/35 53/49/35 60/57/35 61/58/35 51/54/35 50/53/35
usemtl PathFace
f 49/59/36 58/56/36 59/55/36 64/60/36 61/58/36 60/57/36
f 58/56/37 49/59/37 57/48/37 55/51/37
f 53/49/38 57/48/38 49/59/38 60/57/38
f 51/54/39 61/58/39 64/60/39
f 51/54/40 64/60/40 59/55/40
l 62 59
l 62 59
l 62 61
l 63 62
l 62 64
o ending.3.4_ending.229
v 6.500000 0.250000 -7.500000
v 6.500000 0.250000 -8.500000
v 5.000000 -0.500000 -7.000000
v 5.000000 0.500000 -7.000000
v 7.000000 -0.500000 -7.000000
v 7.000000 0.500000 -7.000000
v 5.000000 -0.500000 -9.000000
v 5.000000 0.500000 -9.000000
v 7.000000 -0.500000 -9.000000
v 7.000000 0.500000 -9.000000
v 5.000000 0.250000 -8.500000
v 5.000000 0.250000 -7.500000
v 7.000000 0.500000 -8.500000
v 7.000000 0.500000 -7.500000
v 6.500000 0.500000 -9.000000
v 6.500000 0.500000 -7.000000
vt 0.125000 0.500000
vt 0.375000 0.500000
vt 0.625000 0.500000
vt 0.000000 0.000000
vt 0.000000 0.000000
vt 0.625000 0.250000
vt 0.375000 0.000000
vt 0.375000 0.250000
vt 0.625000 0.187500
vt 0.625000 0.000000
vt 0.375000 0.750000
vt 0.625000 0.750000
vt 0.625000 0.562500
vt 0.125000 0.750000
vt 0.000000 0.000000
vt 0.000000 0.000000
vt 0.000000 0.000000
vt 0.000000 0.000000
vt 0.000000 0.000000
vt 0.000000 0.000000
vt 0.000000 0.000000
vt 0.000000 0.000000
vt 0.000000 0.000000
vt 0.000000 0.000000
vt 0.125000 0.500000
vt 0.312500 0.500000
vt 0.312500 0.750000
vt 0.125000 0.750000
vt 0.000000 0.000000
vt 0.000000 0.000000
vn 1.0000 0.0000 0.0000
vn 0.0000 0.0000 1.0000
vn 0.0000 1.0000 0.0000
vn 0.0000 0.0000 -1.0000
vn 0.0000 -1.0000 0.0000
vn -1.0000 0.0000 0.0000
vn -0.4082 0.8165 0.4082
vn -0.4082 0.8165 -0.4082
vn -0.4472 0.8944 0.0000
vn 0.0000 0.8944 0.4472
vn 0.0000 0.8944 -0.4472
usemtl Material
s off
f 69/61/41 73/62/41 74/63/41 77/64/41 78/65/41 70/66/41
f 67/67/42 69/68/42 70/66/42 80/69/42 68/70/42
f 80/69/43 70/66/43 78/65/43
f 73/62/44 71/71/44 72/72/44 79/73/44 74/63/44
f 79/73/43 77/64/43 74/63/43
f 69/61/45 67/74/45 71/71/45 73/62/45
f 74/75/44 73/76/44 71/77/44 72/78/44
f 70/79/42 68/80/42 67/81/42 69/82/42
f 67/81/46 68/80/46 76/83/46 75/84/46 72/78/46 71/77/46
usemtl PathFace
f 66/85/43 75/86/43 76/87/43 65/88/43
f 77/64/47 79/73/47 66/89/47
f 80/69/48 78/65/48 65/90/48
f 65/90/49 78/65/49 77/64/49 66/89/49
f 75/86/50 66/89/50 79/73/50 72/72/50
f 65/88/51 76/87/51 68/70/51 80/69/51
o hole.4.1_Cube.116
v 7.500000 0.250000 -2.500000
v 7.000000 -0.500000 -3.000000
v 7.000000 0.500000 -3.000000
v 7.500000 0.500000 -3.000000
v 7.000000 0.500000 -2.500000
v 8.500000 0.250000 -2.500000
v 9.000000 -0.500000 -3.000000
v 9.000000 0.500000 -3.000000
v 8.500000 0.500000 -3.000000
v 9.000000 0.500000 -2.500000
v 7.500000 0.250000 -1.500000
v 7.000000 -0.500000 -1.000000
v 7.000000 0.500000 -1.000000
v 7.500000 0.500000 -1.000000
v 7.000000 0.500000 -1.500000
v 8.500000 0.250000 -1.500000
v 9.000000 -0.500000 -1.000000
v 9.000000 0.500000 -1.000000
v 8.500000 0.500000 -1.000000
v 9.000000 0.500000 -1.500000
vt 0.625000 0.187500
vt 0.000000 0.000000
vt 0.625000 0.250000
vt 0.375000 0.812500
vt 0.375000 0.750000
vt 1.000000 1.000000
vt 0.375000 0.812500
vt 0.375000 0.750000
vt 1.000000 1.000000
vt 0.625000 0.187500
vt 0.000000 0.000000
vt 0.625000 0.250000
vt 0.875000 0.500000
vt 0.000000 0.000000
vt 0.125000 0.500000
vt 0.000000 0.000000
vt 0.000000 0.000000
vt 1.000000 1.000000
vt 1.000000 1.000000
vt 0.000000 0.000000
vt 0.000000 0.000000
vn 0.0000 1.0000 0.0000
vn 0.0000 0.0000 -1.0000
vn 1.0000 0.0000 0.0000
vn -1.0000 0.0000 0.0000
vn 0.0000 0.0000 1.0000
vn 0.0000 -1.0000 0.0000
vn 0.4082 0.8165 0.4082
vn -0.4082 0.8165 0.4082
vn 0.4472 0.8944 0.0000
vn 0.4082 0.8165 -0.4082
vn -0.4472 0.8944 0.0000
vn -0.4082 0.8165 -0.4082
vn 0.0000 0.8944 0.4472
vn 0.0000 0.8944 -0.4472
usemtl Material
s off
f 85/91/52 84/92/52 83/93/52
f 90/94/52 88/95/52 89/96/52
f 95/97/52 93/98/52 94/99/52
f 100/100/52 99/101/52 98/102/52
f 83/93/53 84/92/53 89/96/53 88/95/53 87/103/53 82/104/53
f 88/95/54 90/94/54 100/100/54 98/102/54 97/105/54 87/103/54
f 82/104/55 92/106/55 93/98/55 95/97/55 85/91/55 83/93/55
f 93/98/56 92/106/56 97/105/56 98/102/56 99/101/56 94/99/56
f 92/106/57 82/104/57 87/103/57 97/105/57
usemtl PathFace
f 85/91/58 81/107/58 84/92/58
f 90/94/59 89/96/59 86/108/59
f 85/91/60 95/97/60 91/109/60 81/107/60
f 95/97/61 94/99/61 91/109/61
f 86/108/52 81/107/52 91/110/52 96/111/52
f 90/94/62 86/108/62 96/111/62 100/100/62
f 100/100/63 96/111/63 99/101/63
f 84/92/64 81/107/64 86/108/64 89/96/64
f 94/99/65 99/101/65 96/111/65 91/110/65
o corner.4.2_corner.581
v 8.500000 0.250000 -3.500000
v 7.000000 -0.500000 -5.000000
v 7.000000 0.500000 -5.000000
v 7.000000 -0.500000 -3.000000
v 7.000000 0.500000 -3.000000
v 9.000000 -0.500000 -5.000000
v 9.000000 0.500000 -5.000000
v 9.000000 -0.500000 -3.000000
v 9.000000 0.500000 -3.000000
v 8.500000 0.250000 -5.000000
v 7.500000 0.250000 -5.000000
v 7.000000 0.250000 -3.500000
v 7.000000 0.250000 -4.500000
v 7.500000 0.000000 -4.500000
v 7.500000 0.000000 -4.500000
v 7.500000 0.250000 -4.500000
vt 0.375000 0.250000
vt 0.375000 0.500000
vt 0.625000 0.500000
vt 0.625000 0.250000
vt 0.375000 0.750000
vt 0.625000 0.750000
vt 0.125000 0.500000
vt 0.125000 0.750000
vt 0.000000 0.000000
vt 0.500000 0.937500
vt 0.500000 0.812500
vt 0.500000 0.187500
vt 0.500000 0.062500
vt 0.375000 0.250000
vt 0.000000 0.000000
vn 0.0000 0.0000 1.0000
vn 1.0000 0.0000 0.0000
vn 0.0000 -1.0000 0.0000
vn 0.0000 0.0000 -1.0000
vn -1.0000 0.0000 0.0000
vn 0.0000 1.0000 0.0000
vn -0.4472 0.8944 0.0000
vn 0.0000 0.8944 -0.4472
vn 0.0000 0.8944 0.4472
vn 0.4472 0.8944 0.0000
usemtl Material
s off
f 104/112/66 108/113/66 109/114/66 105/115/66
f 108/113/67 106/116/67 107/117/67 109/114/67
f 104/118/68 102/119/68 106/116/68 108/113/68
f 103/120/69 111/121/69 110/122/69 107/117/69 106/116/69 102/119/69
f 104/112/70 105/115/70 112/123/70 113/124/70 103/120/70 102/119/70
usemtl PathFace
f 101/125/71 110/122/71 111/121/71 116/126/71 113/124/71 112/123/71
f 110/122/72 101/125/72 109/114/72 107/117/72
f 105/115/73 109/114/73 101/125/73 112/123/73
f 103/120/74 113/124/74 116/126/74
f 103/120/75 116/126/75 111/121/75
l 114 111
l 114 111
l 114 113
l 115 114
l 114 116
o through.4.3_through.111
v 9.000003 -0.500000 -6.999998
v 9.000003 0.500000 -6.999998
v 8.999997 -0.500000 -4.999998
v 8.999997 0.500000 -4.999998
v 7.000002 -0.500000 -7.000002
v 7.000002 0.500000 -7.000002
v 6.999998 -0.500000 -5.000002
v 6.999998 0.500000 -5.000002
v 7.499997 0.250000 -5.000001
v 7.500002 0.250000 -7.000001
v 8.499997 0.250000 -4.999999
v 8.500003 0.250000 -6.999999
vt 0.375000 0.000000
vt 0.625000 0.000000
vt 0.625000 0.250000
vt 0.375000 0.250000
vt 0.375000 0.500000
vt 0.625000 0.500000
vt 0.625000 0.750000
vt 0.375000 0.750000
vt 0.152781 0.750000
vt 0.152781 0.500000
vt 0.125000 0.500000
vt 0.125000 0.750000
vt 0.282406 0.500000
vt 0.282406 0.750000
vn 1.0000 0.0000 0.0000
vn -1.0000 0.0000 -0.0000
vn -0.0000 0.0000 1.0000
vn 0.0000 -1.0000 0.0000
vn 0.0000 0.0000 -1.0000
vn -0.4472 0.8944 -0.0000
vn 0.4472 0.8944 0.0000
vn 0.0000 1.0000 0.0000
usemtl Material
s off
f 117/127/76 118/128/76 120/129/76 119/130/76
f 123/131/77 124/132/77 122/133/77 121/134/77
f 120/129/78 127/135/78 125/136/78 124/132/78 123/131/78 119/137/78
f 119/137/79 123/131/79 121/134/79 117/138/79
f 118/128/80 117/138/80 121/134/80 122/133/80 126/139/80 128/140/80
usemtl PathFace
f 118/128/81 128/140/81 127/135/81 120/129/81
f 124/132/82 125/136/82 126/139/82 122/133/82
f 127/135/83 128/140/83 126/139/83 125/136/83
o ending.4.4_ending.230
v 8.500000 0.250000 -8.500000
v 7.500000 0.250000 -8.500000
v 9.000000 -0.500000 -7.000000
v 9.000000 0.500000 -7.000000
v 9.000000 -0.500000 -9.000000
v 9.000000 0.500000 -9.000000
v 7.000000 -0.500000 -7.000000
v 7.000000 0.500000 -7.000000
v 7.000000 -0.500000 -9.000000
v 7.000000 0.500000 -9.000000
v 7.500000 0.250000 -7.000000
v 8.500000 0.250000 -7.000000
v 7.500000 0.500000 -9.000000
v 8.500000 0.500000 -9.000000
v 7.000000 0.500000 -8.500000
v 9.000000 0.500000 -8.500000
vt 0.125000 0.500000
vt 0.375000 0.500000
vt 0.625000 0.500000
vt 0.000000 0.000000
vt 0.000000 0.000000
vt 0.625000 0.250000
vt 0.375000 0.000000
vt 0.375000 0.250000
vt 0.625000 0.187500
vt 0.625000 0.000000
vt 0.375000 0.750000
vt 0.625000 0.750000
vt 0.625000 0.562500
vt 0.125000 0.750000
vt 0.000000 0.000000
vt 0.000000 0.000000
vt 0.000000 0.000000
vt 0.000000 0.000000
vt 0.000000 0.000000
vt 0.000000 0.000000
vt 0.000000 0.000000
vt 0.000000 0.000000
vt 0.000000 0.000000
vt 0.000000 0.000000
vt 0.125000 0.500000
vt 0.312500 0.500000
vt 0.312500 0.750000
vt 0.125000 0.750000
vt 0.000000 0.000000
vt 0.000000 0.000000
vn 0.0000 0.0000 -1.0000
vn 1.0000 0.0000 0.0000
vn 0.0000 1.0000 0.0000
vn -1.0000 0.0000 0.0000
vn 0.0000 -1.0000 0.0000
vn 0.0000 0.0000 1.0000
vn 0.4082 0.8165 0.4082
vn -0.4082 0.8165 0.4082
vn 0.0000 0.8944 0.4472
vn 0.4472 0.8944 0.0000
vn -0.4472 0.8944 0.0000
usemtl Material
s off
f 133/141/84 137/142/84 138/143/84 141/144/84 142/145/84 134/146/84
f 131/147/85 133/148/85 134/146/85 144/149/85 132/150/85
f 144/149/86 134/146/86 142/145/86
f 137/142/87 135/151/87 136/152/87 143/153/87 138/143/87
f 143/153/86 141/144/86 138/143/86
f 133/141/88 131/154/88 135/151/88 137/142/88
f 138/155/87 137/156/87 135/157/87 136/158/87
f 134/159/85 132/160/85 131/161/85 133/162/85
f 131/161/89 132/160/89 140/163/89 139/164/89 136/158/89 135/157/89
usemtl PathFace
f 130/165/86 139/166/86 140/167/86 129/168/86
f 141/144/90 143/153/90 130/169/90
f 144/149/91 142/145/91 129/170/91
f 129/170/92 142/145/92 141/144/92 130/169/92
f 139/166/93 130/169/93 143/153/93 136/152/93
f 129/168/94 140/167/94 132/150/94 144/149/94
